<?xml version="1.0" encoding="iso-8859-1"?>
<!-- Generator: Adobe Illustrator 19.0.0, SVG Export Plug-In . SVG Version: 6.00 Build 0)  -->
<svg version="1.1" id="Capa_1" xmlns="http://www.w3.org/2000/svg" xmlns:xlink="http://www.w3.org/1999/xlink" x="0px" y="0px"
	 viewBox="0 0 384 384" style="enable-background:new 0 0 384 384;" xml:space="preserve">
<g>
	<g>
		<path d="M351.984,0H32.048C14.416,0,0,14.416,0,32.048v319.92C0,369.664,14.336,384,32.032,384h319.936
			C369.664,384,384,369.664,384,351.968V32.016C384,14.4,369.6,0,351.984,0z M64,320H32v-32h32V320z M64,256H32v-32h32V256z M64,160
			H32v-32h32V160z M64,96H32V64h32V96z M288,320H96v-96h192V320z M288,160H96V64h192V160z M352,320h-32v-32h32V320z M352,256h-32
			v-32h32V256z M352,160h-32v-32h32V160z M352,96h-32V64h32V96z"/>
	</g>
</g>
<g>
</g>
<g>
</g>
<g>
</g>
<g>
</g>
<g>
</g>
<g>
</g>
<g>
</g>
<g>
</g>
<g>
</g>
<g>
</g>
<g>
</g>
<g>
</g>
<g>
</g>
<g>
</g>
<g>
</g>
</svg>
